PathFileType	4	(X/Y/Z)	C:/Users/opensim2020/Desktop/walking_exp_matlab/subject06_walking17_straight_02.trc	
DataRate	CameraRate	NumFrames	NumMarkers	Units	OrigDataRate	OrigDataStartFrame	OrigNumFrames	
100.00	100.00	6	45	mm	100.00	2449	334	
Frame#	Time	LFHD			RFHD			LBHD			RBHD			C7			T10			CLAV			STRN			RBAK			LSHO			LUPA			LELB			LFRM			LWRA			LWRB			LFIN			RSHO			RUPA			RELB			RFRM			RWRA			RWRB			RFIN			LASI			RASI			LPSI			RPSI			LTHI			LKNE			LTIB			LANK			LHEE			LTOE			RTHI			RKNE			RTIB			RANK			RHEE			RTOE			*39			*40			*41			*42			*43			*44			
		X1	Y1	Z1	X2	Y2	Z2	X3	Y3	Z3	X4	Y4	Z4	X5	Y5	Z5	X6	Y6	Z6	X7	Y7	Z7	X8	Y8	Z8	X9	Y9	Z9	X10	Y10	Z10	X11	Y11	Z11	X12	Y12	Z12	X13	Y13	Z13	X14	Y14	Z14	X15	Y15	Z15	X16	Y16	Z16	X17	Y17	Z17	X18	Y18	Z18	X19	Y19	Z19	X20	Y20	Z20	X21	Y21	Z21	X22	Y22	Z22	X23	Y23	Z23	X24	Y24	Z24	X25	Y25	Z25	X26	Y26	Z26	X27	Y27	Z27	X28	Y28	Z28	X29	Y29	Z29	X30	Y30	Z30	X31	Y31	Z31	X32	Y32	Z32	X33	Y33	Z33	X34	Y34	Z34	X35	Y35	Z35	X36	Y36	Z36	X37	Y37	Z37	X38	Y38	Z38	X39	Y39	Z39	X40	Y40	Z40	X41	Y41	Z41	X42	Y42	Z42	X43	Y43	Z43	X44	Y44	Z44	X45	Y45	Z45	

293	2.920	1518.26147	-675.77106	1671.57141	1386.80444	-666.48926	1656.10608	1530.58472	-545.26813	1611.55090	1401.97900	-537.27686	1601.57483	1470.03931	-547.43024	1451.87048	1462.08167	-523.57751	1122.34631	1468.42810	-659.15259	1378.51587	1472.08533	-705.15424	1203.36194	1385.81738	-481.98737	1280.39063	1631.08276	-605.27496	1405.69897	1705.48914	-600.94269	1203.71545	1718.96497	-594.63116	1091.46545	1738.54529	-626.77826	944.20123	1690.23987	-689.50281	833.85138	1731.59912	-632.33344	824.61908	1729.32104	-677.99597	746.56268	1307.39856	-618.86407	1410.26685	1218.02722	-594.53326	1210.07349	1206.12244	-611.31537	1088.99036	1189.52673	-632.52734	970.33643	1224.10828	-696.70337	833.72235	1179.35706	-645.61621	833.58075	1179.20984	-685.68054	759.27490	1560.70837	-710.74426	967.23212	1341.34961	-692.47131	967.06067	1544.26819	-549.63538	995.10797	1376.28381	-543.18109	989.97467	1623.30627	-657.08429	654.11414	1598.88245	-660.05328	490.08051	1579.27856	-650.40240	234.57883	1524.87439	-667.23755	67.17257	1477.16284	-630.38763	54.07563	1523.51843	-815.06299	41.15112	1268.28088	-655.53534	632.86902	1273.12024	-679.29565	507.81714	1290.91931	-493.95599	335.10159	1344.85657	-351.61917	221.51817	1396.70032	-317.12189	233.91008	1331.94629	-407.88916	74.74002	1465.60193	-569.64227	1703.30518															 
294	2.930	1519.39209	-682.66949	1671.84863	1388.01733	-672.85150	1656.42236	1532.20715	-551.99738	1612.21228	1403.64600	-543.57776	1602.24438	1471.89319	-553.45178	1452.34583	1463.14453	-530.00244	1122.69666	1469.58179	-665.41498	1378.88000	1473.11047	-711.43610	1203.74377	1387.37732	-488.16110	1280.73853	1632.25537	-612.25812	1405.99060	1707.03296	-610.57666	1204.01917	1721.04285	-605.72308	1091.80566	1740.65076	-639.72278	945.00079	1691.86963	-702.89191	835.21478	1734.27356	-646.56757	825.44781	1731.76904	-693.32117	748.13458	1308.64453	-624.61688	1410.88440	1219.46582	-600.24353	1210.63477	1207.73816	-616.95575	1089.61743	1191.01318	-638.12842	971.03217	1225.38452	-701.94537	834.26721	1180.92859	-651.31305	834.20190	1180.39978	-691.43225	760.07031	1562.11096	-716.63678	967.50226	1342.56970	-699.39075	967.72504	1545.20862	-555.66974	995.43658	1377.28467	-549.94867	990.34058	1624.40503	-660.16138	653.87592	1599.50354	-661.87720	490.03598	1579.42676	-650.55969	234.61197	1524.78149	-667.18756	67.21766	1477.13293	-630.45129	54.10301	1523.66577	-815.16626	41.02544	1268.96973	-666.70728	634.20673	1273.91113	-692.38007	509.61066	1291.35791	-508.05096	336.51440	1344.54456	-366.70496	221.15773	1396.45764	-331.47034	232.14566	1329.30249	-427.29797	76.90835	1467.08789	-576.43976	1703.87732															 
295	2.940	1520.48669	-689.42029	1672.19568	1389.17444	-679.38696	1656.81421	1533.66711	-558.66949	1612.98218	1405.19531	-549.82819	1603.04651	1473.29382	-559.62567	1452.74976	1464.13525	-536.34711	1123.18408	1470.67932	-671.57471	1379.38025	1474.18054	-717.60559	1204.31763	1388.71252	-494.30612	1281.24438	1633.29785	-619.00824	1406.36304	1708.44641	-619.96136	1204.51807	1722.64600	-617.40247	1092.28821	1742.71118	-652.66235	946.06323	1693.41003	-716.27484	836.76953	1736.76624	-660.90216	826.69080	1734.19189	-708.52881	749.98065	1309.85303	-630.43152	1411.61633	1220.74097	-606.04327	1211.39136	1209.20251	-622.51996	1090.42200	1192.62732	-643.78009	971.78711	1226.78601	-707.71149	835.03479	1182.41406	-656.92914	835.02814	1181.78821	-697.11078	760.88031	1563.76855	-722.27930	967.73346	1343.98889	-706.29883	968.43176	1546.27661	-561.45123	995.81842	1378.13489	-556.70465	990.94531	1625.29163	-663.29791	653.98108	1599.89038	-663.88855	490.06061	1579.47729	-650.88416	234.75739	1524.65112	-667.25476	67.39294	1477.08765	-630.87750	53.83193	1523.86218	-815.24261	40.93031	1269.86414	-677.36993	635.66278	1274.99817	-705.11780	511.61020	1291.73755	-522.19928	337.29593	1344.11145	-382.37790	219.59962	1396.06165	-346.30923	229.17307	1327.14783	-446.92032	77.78601	1468.49854	-583.17987	1704.55396															 
296	2.950	1521.57581	-696.13916	1672.63232	1390.26501	-685.62659	1657.28357	1535.17468	-565.25873	1613.84912	1406.61584	-556.01251	1603.90930	1474.61792	-565.73700	1453.39465	1465.10364	-542.64813	1123.69531	1471.74658	-677.63666	1379.99329	1475.34070	-723.64203	1204.82532	1389.97400	-500.38422	1281.79907	1634.45264	-625.36194	1406.98267	1709.81055	-629.03436	1205.19727	1724.38306	-628.14703	1093.03699	1744.55627	-665.46130	947.46375	1694.95251	-729.74786	838.66199	1739.20398	-675.11102	828.13196	1736.34253	-723.70563	752.07532	1311.03394	-636.26520	1412.45007	1221.91699	-611.88818	1212.25623	1210.48730	-628.08148	1091.25012	1193.99829	-649.29346	972.63239	1228.02466	-713.61700	836.10126	1183.93054	-662.58612	835.92395	1183.12024	-703.05908	761.89978	1565.57544	-727.71179	967.98553	1345.50061	-713.24445	969.23584	1547.15588	-567.05750	996.16400	1379.00427	-563.48218	991.71857	1625.90564	-666.46277	654.09009	1600.10828	-666.13342	490.26566	1579.36487	-651.58044	234.98199	1524.48914	-667.23785	67.49741	1476.91907	-630.95331	53.91348	1524.10229	-815.28082	40.79971	1270.82410	-688.02533	637.23694	1276.37830	-717.26935	513.57721	1291.51367	-536.50226	337.36343	1343.51050	-398.54086	216.83151	1395.63403	-362.06937	224.77794	1325.19836	-467.01736	77.36140	1469.87744	-589.90472	1705.32251															 
297	2.960	1522.51807	-702.70984	1673.14893	1391.27234	-691.87738	1657.76624	1536.52710	-571.78125	1614.76160	1408.06506	-562.13916	1604.79517	1475.90173	-571.79407	1453.96753	1466.01685	-548.67902	1124.33887	1472.90125	-683.78137	1380.61560	1476.57593	-729.70947	1205.48523	1391.01489	-506.58011	1282.46252	1635.50012	-631.54718	1407.65344	1711.07251	-637.76404	1206.02075	1726.01489	-638.60004	1093.89868	1746.26001	-677.99670	948.94037	1696.37207	-742.91241	840.63531	1741.47571	-689.05841	829.63098	1738.45239	-738.77368	754.49335	1312.23584	-642.05896	1413.35229	1222.96411	-617.74493	1213.17529	1211.69897	-633.57916	1092.11609	1195.18567	-654.81494	973.57831	1229.28931	-719.44928	837.06995	1185.39771	-668.33008	836.79950	1184.60120	-708.86041	762.78308	1567.52100	-732.99323	968.28467	1347.27124	-720.21924	970.08386	1547.97302	-572.52942	996.64105	1379.79138	-570.26996	992.70361	1626.28662	-669.86859	654.26556	1600.16699	-668.71338	490.57309	1579.18652	-652.54120	235.28038	1524.27222	-667.22876	67.56953	1476.70410	-631.05286	54.09676	1524.34802	-815.32550	40.67834	1271.89880	-698.26709	638.86157	1278.04419	-728.98639	515.60693	1291.86243	-551.11713	336.54431	1342.84106	-415.18613	212.96988	1394.84314	-377.77905	219.57669	1323.37708	-488.19247	76.53809	1471.10718	-596.57922	1706.06006															 
298	2.970	1523.54272	-709.33875	1673.64856	1392.32593	-698.25861	1658.34729	1537.79150	-578.23669	1615.64526	1409.37744	-568.24768	1605.67932	1477.01904	-577.83600	1454.67334	1467.00220	-554.77295	1125.04590	1474.01440	-689.79932	1381.22241	1477.87708	-735.69568	1206.17322	1392.04834	-512.70447	1283.05847	1636.54517	-637.58221	1408.41016	1712.31409	-646.26373	1206.94446	1727.52588	-648.67389	1094.86377	1747.96533	-690.26752	950.60712	1697.84412	-756.28845	842.97839	1743.53137	-703.19537	831.54279	1740.34949	-753.63098	757.01483	1313.44763	-647.82703	1414.24500	1223.94507	-623.51935	1214.13916	1212.75513	-638.99713	1092.98340	1196.25671	-660.31073	974.40259	1230.67798	-725.16162	838.05438	1186.70593	-674.08636	837.65271	1186.45654	-714.43115	763.28790	1569.53174	-738.07703	968.61932	1349.19165	-727.09082	971.04327	1548.63391	-577.83795	997.06897	1380.43188	-576.94568	993.78149	1626.40771	-673.48981	654.47064	1600.15906	-671.54236	490.83929	1578.88464	-653.52563	235.57419	1524.09753	-667.31250	67.82302	1476.35571	-631.23071	54.27937	1524.61023	-815.43994	40.65352	1273.08069	-708.11127	640.49707	1279.81824	-740.44147	517.54840	1292.72253	-566.00085	335.03601	1342.11731	-432.30957	208.19278	1393.69397	-394.13287	213.01678	1321.78882	-510.26260	75.12659	1472.31946	-603.06274	1706.87598															 
